<?xml version="1.0" encoding="utf-8"?>
<!-- Generator: Adobe Illustrator 24.1.2, SVG Export Plug-In . SVG Version: 6.00 Build 0)  -->
<svg version="1.1" id="Layer_1" xmlns="http://www.w3.org/2000/svg" xmlns:xlink="http://www.w3.org/1999/xlink" x="0px" y="0px"
	 viewBox="0 0 98 98" style="enable-background:new 0 0 98 98;" xml:space="preserve">
<g>
	<g>
		<path d="M36.5,95.1c-0.6-3.2-1.7-6.4-1.7-9.6c-0.1-24.8-0.1-49.6,0-74.5c0-3,1.2-5.9,2.4-9.1C47.7,13.6,61,22.4,69,35.9
			c-0.4,0.4-0.7,0.8-1.1,1.3c-2.7-1.8-5.7-3.2-8-5.4C53.4,25.5,47.1,19,40,11.8c0,7.5-0.1,14.1,0.1,20.7c0,0.8,1.1,1.6,1.8,2.3
			c6.3,6.3,12.7,12.5,18.8,19c2.5,2.6,4.4,5.8,6.6,8.7c-0.3,0.4-0.7,0.8-1,1.2c-2.5-1.5-5.4-2.6-7.5-4.5
			C53.5,54.3,48.6,49,43.5,43.9c-0.9-0.9-1.9-1.8-3.4-3.1c-0.1,1.9-0.2,3.1-0.2,4.2c0,13.9,0.1,27.8-0.1,41.7c0,2.8-1.2,5.6-1.8,8.4
			C37.5,95.2,37,95.1,36.5,95.1z"/>
	</g>
</g>
</svg>
