<?xml version="1.0" encoding="utf-8"?>
<!-- Generator: Adobe Illustrator 24.1.2, SVG Export Plug-In . SVG Version: 6.00 Build 0)  -->
<svg version="1.1" id="Layer_1" xmlns="http://www.w3.org/2000/svg" xmlns:xlink="http://www.w3.org/1999/xlink" x="0px" y="0px"
	 viewBox="0 0 98 98" style="enable-background:new 0 0 98 98;" xml:space="preserve">
<g>
	<g>
		<path d="M73.8,98.7c-1.9-3.4-2.8-6.7-2.8-10.5c0.2-8.9,0-17.9,0.1-26.8c0-2-0.5-3.4-2-4.9C62.5,50,56.1,43.4,49.3,36.6
			c-7,7-13.8,13.8-20.5,20.8c-0.9,0.9-1.1,2.7-1.1,4c-0.1,9.6,0.1,19.1-0.1,28.7c-0.1,2.7-1.1,5.4-2.2,8c-1.9-2.9-3.1-5.6-3.1-9
			c0.1-24.8,0.1-49.6,0-74.5c0-3.5,1.1-6.5,2.7-9.6c8,8.2,15.8,16.2,24,24.6C57.5,21,65.5,13,73.7,4.8c1.8,3.4,2.7,6.5,2.7,10.1
			c-0.1,24.7-0.1,49.4,0,74.1C76.4,92.5,75.4,95.5,73.8,98.7z M27.8,15.3c0,11.9,0,23.1,0,34.1c5.7-5.7,11.4-11.4,16.9-16.8
			C39.3,27.1,33.8,21.5,27.8,15.3z M70.9,50.1c0-11.6,0-22.9,0-34.1C65.2,21.7,59.5,27.5,54,33C59.4,38.5,65.1,44.2,70.9,50.1z"/>
	</g>
</g>
</svg>
